<?xml version="1.0" standalone="no"?>
<!DOCTYPE svg PUBLIC "-//W3C//DTD SVG 20010904//EN"
 "http://www.w3.org/TR/2001/REC-SVG-20010904/DTD/svg10.dtd">
<svg version="1.0" xmlns="http://www.w3.org/2000/svg"
 width="512.000000pt" height="512.000000pt" viewBox="0 0 512.000000 512.000000"
 preserveAspectRatio="xMidYMid meet">
<metadata>
Created by potrace 1.14, written by Peter Selinger 2001-2017
</metadata>
<g transform="translate(0.000000,512.000000) scale(0.100000,-0.100000)"
fill="#000000" stroke="none">
<path d="M2332 5110 c-208 -20 -466 -78 -648 -145 -150 -55 -405 -185 -534
-270 -720 -483 -1153 -1288 -1149 -2138 0 -89 4 -182 7 -207 l7 -45 50 -6
c395 -51 564 -70 830 -94 234 -21 587 -45 665 -45 36 0 70 -4 76 -8 6 -4 29
-46 51 -93 56 -120 113 -201 204 -291 128 -125 294 -215 472 -254 96 -22 298
-22 394 0 163 36 305 107 431 216 101 87 173 182 235 313 37 75 58 108 72 111
11 3 117 9 235 16 481 25 1350 117 1379 145 3 4 6 115 5 248 0 218 -3 257 -27
390 -64 350 -157 616 -308 877 -409 703 -1092 1160 -1892 1265 -147 19 -432
27 -555 15z m331 -2245 c85 -22 134 -51 197 -114 163 -164 167 -419 9 -586
-88 -93 -185 -135 -311 -135 -258 0 -458 235 -417 489 39 247 283 408 522 346z"/>
</g>
</svg>
